<?xml version="1.0" encoding="UTF-8"?>
<svg xmlns="http://www.w3.org/2000/svg" viewBox="0 0 508 508">
	<path d="M472.28,0H35.72C15.992,0,0,15.992,0,35.72v436.56C0,492.008,15.992,508,35.72,508h436.56
		c19.728,0,35.72-15.992,35.72-35.72V35.72C508,15.992,492.008,0,472.28,0z M254.276,441.232
		c-102.9,0-186.608-83.716-186.608-186.608S151.38,68.02,254.276,68.02c102.888,0,186.604,83.712,186.604,186.604
		C440.88,357.52,357.164,441.232,254.276,441.232z"/>
	<path d="M170.128,226.176c-15.692,0-28.448,12.76-28.448,28.448c0,15.688,12.756,28.448,28.448,28.448
		c15.688,0,28.448-12.76,28.448-28.448S185.816,226.176,170.128,226.176z"/>
	<path d="M329.992,226.176c-15.692,0-28.452,12.76-28.452,28.448c0,15.688,12.76,28.448,28.452,28.448
		c15.684,0,28.448-12.76,28.448-28.448S345.676,226.176,329.992,226.176z"/>
</svg>