<?xml version="1.0" encoding="UTF-8"?>
<!-- Generated by Pixelmator Pro 3.6.14 -->
<svg width="512" height="512" viewBox="0 0 512 512" xmlns="http://www.w3.org/2000/svg">
    <path id="path1" fill="#000000" stroke="none" d="M 512 256 C 512 114.615112 397.384888 0 256 0 C 114.615105 0 0 114.615112 0 256 C 0 397.384888 114.615105 512 256 512 C 397.384888 512 512 397.384888 512 256 Z M 40 256 C 40 136.706482 136.706497 40 256 40 C 375.293518 40 472 136.706482 472 256 C 472 375.293518 375.293518 472 256 472 C 136.706497 472 40 375.293518 40 256 Z M 255.27803 429.907074 C 159.728485 429.907074 82 352.171173 82 256.629089 C 82 161.086945 159.732193 83.354767 255.27803 83.354767 C 350.816406 83.354767 428.552307 161.086945 428.552307 256.629089 C 428.552307 352.174866 350.816406 429.907074 255.27803 429.907074 Z M 181.997467 230.213196 C 167.426392 230.213196 155.581589 242.061707 155.581589 256.629089 C 155.581589 271.196442 167.426392 283.044922 181.997467 283.044922 C 196.564819 283.044922 208.41333 271.196442 208.41333 256.629089 C 208.41333 242.061707 196.564819 230.213196 181.997467 230.213196 Z M 330.441895 230.213196 C 315.870789 230.213196 304.022308 242.061707 304.022308 256.629089 C 304.022308 271.196442 315.870789 283.044922 330.441895 283.044922 C 345.005524 283.044922 356.857788 271.196442 356.857788 256.629089 C 356.857788 242.061707 345.005524 230.213196 330.441895 230.213196 Z"/>
</svg>
