<?xml version="1.0" encoding="UTF-8"?>
<!-- Generated by Pixelmator Pro 3.6.14 -->
<svg width="512" height="512" viewBox="0 0 512 512" xmlns="http://www.w3.org/2000/svg">
    <path id="path1" fill="#000000" fill-rule="evenodd" stroke="none" d="M 148 23.829071 C 60.587349 64.560425 0 153.204742 0 256 C 0 397.384888 114.615105 512 256 512 C 397.384888 512 512 397.384888 512 256 C 512 152.813232 450.950226 63.885376 363 23.365753 L 363 68.322052 C 428.113617 105.525055 472 175.637421 472 256 C 472 375.293518 375.293518 472 256 472 C 136.706497 472 40 375.293518 40 256 C 40 176.0495 83.437454 106.244354 148 68.896942 L 148 23.829071 Z"/>
    <path id="-" fill="#000000" stroke="none" d="M 226.710999 12.780029 L 226.710999 -28 L 285.289001 -28 L 285.289001 12.780029 L 303.932007 12.780029 C 318.192993 12.780029 329.761017 24.346985 329.761017 38.608032 L 329.761017 84.307007 C 377.085999 105.748993 410.032013 153.360992 410.032013 208.692993 L 410.032013 265.661987 L 410.031006 265.661987 L 410.031006 332.503998 C 353.622009 332.503998 353.622009 332.503998 353.622009 332.503998 L 353.622009 359.466003 L 304.947021 359.466003 L 304.947021 332.503998 C 207.054993 332.503998 207.054993 332.503998 207.054993 332.503998 L 207.054993 359.466003 L 158.377991 359.466003 L 158.377991 332.503998 L 101.967987 332.503998 L 101.967987 250.541992 L 101.968994 250.541992 L 101.968994 208.692993 C 101.968994 153.360992 134.90799 105.747986 182.23999 84.307007 L 182.23999 38.608032 C 182.23999 24.346985 193.800995 12.780029 208.069 12.780029 Z"/>
</svg>
