<?xml version="1.0" encoding="UTF-8"?>
<!-- Generated by Pixelmator Pro 3.6.14 -->
<svg width="512" height="512" viewBox="0 0 512 512" xmlns="http://www.w3.org/2000/svg">
    <path id="path1" fill="#000000" stroke="none" d="M 82 256.629089 C 82 352.171173 159.728485 429.907074 255.27803 429.907074 C 350.816406 429.907074 428.552307 352.174866 428.552307 256.629089 C 428.552307 161.086945 350.816406 83.354767 255.27803 83.354767 C 159.732193 83.354767 82 161.086945 82 256.629089 Z M 255.277603 390.354767 C 181.538361 390.354767 121.552307 330.362976 121.552307 256.629517 C 121.552307 182.895966 181.541214 122.907074 255.277603 122.907074 C 329.00824 122.907074 389 182.895966 389 256.629517 C 389 330.365845 329.00824 390.354767 255.277603 390.354767 Z M 255.277161 164 C 204.199738 164 162.645233 205.554504 162.645233 256.629944 C 162.645233 307.705353 204.197754 349.261841 255.277161 349.261841 C 306.350586 349.261841 347.907074 307.707336 347.907074 256.629944 C 347.907074 205.554504 306.350586 164 255.277161 164 Z"/>
</svg>
